<?xml version="1.0" encoding="UTF-8"?>
<svg id="Layer_2" data-name="Layer 2" xmlns="http://www.w3.org/2000/svg" viewBox="0 0 195.33 44.45">
  <defs>
    <style>
      .cls-1 {
        fill: #ffffff;
      }
      .cls-2 {
        fill: #ffff25;
      }
    </style>
  </defs>
  <g id="Layer_1-2" data-name="Layer 1">
    <g>
      <path class="cls-2" d="m14.56,37.36H.08v-8.94h2.87V8.94H0V0h22.53l5.51,14.42L33.68,0h22.4v8.94h-2.93v19.47h3.01v8.94h-19.5v-8.94h2.98V7.55l-11.28,29.81h-5.59L11.6,7.81v20.6h2.95v8.94Z"/>
      <path class="cls-2" d="m83.02,37.36h-21.3v-8.94h3.44V8.94h-3.44V0h21.3v8.94h-3.41v19.47h3.41v8.94Z"/>
      <path class="cls-1" d="m93.34,23.5l-.72-.05c-.07.04-.2.16-.38.38-.18.21-.45.42-.82.6-.37.19-.59.37-.66.55-.07.18-.14.32-.21.42-.07.1-.16.23-.25.39-.1.16-.22.3-.36.4s-.26.27-.35.5c-.09.22-.25.34-.48.34-.77,0-1.15-.49-1.15-1.48,0-.29.18-.81.54-1.58.36-.77.75-1.22,1.18-1.36.43-.13.76-.26.98-.36.22-.11.43-.2.62-.28.19-.08.68-.41,1.49-.98.04-.04.49-.17,1.37-.4l.99-.59c.14-.18.27-.28.38-.3.11-.02.25-.07.43-.16l.46-.05c.2-.23.51-.41.94-.54l.75-.32c.5-.29,1.15-.55,1.93-.78l.16-.11s.09-.07.16-.11l.72.05c.21,0,.36-.17.43-.51.07-.04.12-.05.16-.05l.67.05s.12-.04.27-.13c.14-.09.31-.15.5-.19.19-.04.34-.13.47-.3.12-.16.26-.24.4-.24h.46c.14,0,.31-.14.51-.42.2-.28.47-.56.81-.85.07.04.14.05.21.05.11,0,.21-.12.3-.36.09-.24.22-.43.39-.58.17-.14.36-.4.58-.77.21-.37.42-.6.6-.7.19-.1.37-.24.54-.43.17-.19.34-.29.52-.31l.05-.05v-.35c0-.29.25-.55.75-.81.07-.04.17-.11.3-.21v-.4s.09-.16.27-.36c.18-.21.27-.35.27-.44,0-.14.28-.52.85-1.14.56-.62.97-1,1.21-1.14.24-.14.53-.5.87-1.07l.38-.13c.38-.5.69-.86.94-1.09.25-.22.48-.51.7-.87l.4-.46c.11-.04.16-.11.16-.21s-.11-.16-.32-.16c-.23,0-.56-.07-.99-.21l-.46.16-.48-.05-.67.32-.64-.05c-.45.27-.76.42-.94.46-.18.04-.32.07-.42.11-.1.04-.21.07-.34.11-.13.04-.3.12-.51.24-.21.13-.51.19-.89.19-.14,0-.32.08-.52.26-.21.17-.52.38-.95.63,0,.04-.02.05-.05.05l-.78-.05c-.81.81-1.32,1.21-1.53,1.21l-.62-.11c-.63.23-1.11.5-1.46.81-.35.3-.68.55-1.01.73l-.48-.05c-.43.43-.7.68-.82.77-.12.08-.22.22-.32.42-.1.2-.27.3-.52.3l-.59.46c0,.27-.21.56-.62.89l-.05.11v.59c0,.14-.14.34-.42.58-.28.24-.49.36-.63.36-.32,0-.65-.21-.98-.63-.33-.42-.5-.85-.5-1.3,0-.07.05-.25.16-.54l.27-1.15c.14-.55,1.07-1.11,2.77-1.67l.43-.32c.36-.21.62-.32.78-.32l.32-.11.16-.4c.11-.07.29-.16.55-.27s.5-.25.71-.43c.21-.18.53-.35.94-.51l.43-.27h.56c.84-.84,2.77-1.71,5.8-2.6,3.03-.9,5.49-1.34,7.38-1.34.52,0,1.03.33,1.54.98.51.65.77,1.26.77,1.81,0,.34-.2.69-.59,1.05-.29.14-.5.47-.64.98-.14.51-.39.88-.73,1.11-.72.63-1.1,1.01-1.15,1.15l-.24.54c-.07.16-.19.28-.35.35-.16.07-.31.27-.46.59s-.51.56-1.1.73c-.04.02-.06.13-.08.34-.02.21-.23.43-.64.66l-.32.27c-.18.57-.35.9-.51.99l-.27.27c-.25.88-.66,1.32-1.24,1.32-.12,0-.24.16-.33.47-.1.31-.36.6-.79.85v.16c.77-.25,1.33-.38,1.67-.38l.38-.05.16-.16c.11.07.21.11.32.11.23,0,.49-.12.78-.38l.43.05s.1-.05.19-.05l1.38-.4c.4-.07.83-.16,1.32-.27h.27c.61,0,1.09.19,1.43.56.34.38.51.83.51,1.37l-.11.75.05.4c0,.11-.17.27-.51.48l-.27.21c-.43.38-.89.56-1.37.56-.83,0-1.32-.21-1.48-.62,0-.07-.12-.12-.36-.13-.24-.02-.43-.06-.55-.13-.13-.07-.22-.11-.3-.11-.23,0-.48-.04-.73-.11-.32.21-.67.32-1.05.32h-.16l-.32-.11-.51.38s-.09-.02-.16-.05-.14-.05-.21-.05c-.11,0-.23.04-.36.12-.13.08-.27.12-.42.12l-.38-.13c-.11.05-.23.09-.36.11-.13.02-.28.13-.44.35s-.33.32-.51.32c-.31,0-.6.3-.89.89l-.16.16h-.16c-.13,0-.21.15-.27.44-.05.29-.12.48-.19.55-.29.04-.46.13-.52.28-.06.15-.16.46-.28.93l-.24.48-.32.19c-.18.68-.51,1.33-.98,1.93-.47.61-.82,1.11-1.05,1.52-.22.4-.43.68-.62.82-.19.14-.32.38-.39.71-.07.33-.16.55-.27.67s-.32.51-.65,1.17l-.83,1.42-.35.78c-.13.25-.29.38-.48.38-.11,0-.16.09-.16.27v.54c0,.07-.18.5-.54,1.29l-.19.54c-.04.07-.14.15-.32.24s-.3.32-.38.7-.17.62-.31.73c-.13.11-.22.33-.25.68-.04.35-.21.58-.54.68-.04.32-.07.54-.09.64-.03.11-.18.22-.47.35h-.05l.16.91c0,.13-.04.19-.11.19-.18.11-.27.2-.27.27l.11.32v.11c0,.07-.07.24-.21.51v.05c0,.07.07.4.21.99l-.16.32c0,.32.14.48.43.48l.83-.54c.25,0,.38.29.38.89l.08.27c-.16.11-.24.2-.24.27s.02.15.05.24.05.17.05.24c0,.59-.53.89-1.58.89h-.11c-.07,0-.18-.04-.32-.11l-.56.05c-.21,0-.6-.21-1.17-.62-.56-.41-.99-1.03-1.29-1.87-.29-.83-.44-1.56-.44-2.19l.75-3.09c.07-.07.11-.19.11-.35s.06-.35.19-.56l.32-.89c.48-.86.78-1.33.89-1.4s.26-.16.46-.27.33-.21.4-.32c-.32-.11-.48-.21-.48-.29,0-.05.14-.32.42-.81.28-.48.51-.74.68-.78.04,0,.05-.02.05-.05s-.02-.11-.05-.21v-.05s.11-.23.32-.59l-.11-.4c.07-.11.17-.21.31-.32.13-.11.32-.41.55-.9.23-.49.41-.77.54-.83.12-.06.21-.13.27-.2l-.08-.75c0-.07.06-.17.19-.3l.16-.32c.07-.14.16-.28.27-.4.11-.12.25-.34.43-.64l.19-.21c.07-.11.18-.33.32-.67,0-.36.2-.74.59-1.15l1.02-1.58c.72-1.09,1.07-1.72,1.07-1.88v-.05c-.39,0-.9.17-1.53.52-.63.35-.98.52-1.05.52l-.62-.16c-.07.04-.36.31-.86.83-.84,0-1.66.28-2.44.83l-.11.05h-.54l-.11.05-.16.27c-.2.07-.44.19-.72.36-.29.17-.53.29-.72.36l-.38.43Z"/>
      <path class="cls-1" d="m115.06,25.92l.43-.38h.16c.12,0,.31-.13.56-.4l.27-.11c.36-.54.67-.85.94-.94l.43-.32c.07-.07.17-.13.31-.19.13-.05.35-.23.65-.52s.53-.44.71-.44.32.02.43.05c.11-.21.32-.43.64-.63.32-.21.58-.45.78-.74l.35-.16c.29-.14.54-.33.77-.55.22-.22.52-.34.87-.34.52,0,1.06.26,1.63.79.56.53.85,1.03.85,1.52l-.46,2.09c-.3,1.54-.64,2.35-1.02,2.42l-.11.56c-.25.18-.38.32-.38.43l.16.64c0,.09-.1.22-.29.4-.04,0-.05.05-.05.16v1.1c0,.2-.13.36-.38.48.04.04.09.07.16.11.11-.11.35-.16.72-.16l.43.05.59-.59c.12-.04.3-.12.52-.25.22-.13.6-.31,1.14-.52l3.51-2.69c.48-.48.85-.73,1.1-.73.27,0,.4.17.4.51,0,.39-.08.72-.23.98-.15.26-.29.57-.42.94-.12.37-.27.62-.44.76-.17.14-.31.3-.42.47s-.4.42-.87.74-.88.65-1.21.98-.6.57-.82.71l-1.15.83-.16.27s-.2.11-.5.23c-.3.12-.56.26-.79.44l-.48.27c-.11.07-.28.12-.52.13-.24.02-.45.12-.63.31-.18.19-.32.28-.43.28l-.4-.05-.54.16c-.3,0-.68-.18-1.11-.55-.44-.37-.66-.76-.66-1.17v-.16l.05-.38c0-.07-.05-.25-.16-.55-.11-.29-.16-.46-.16-.5l.05-.38-.05-.16c0-.48.04-.79.11-.91.07-.13.12-.3.16-.52.04-.22.07-.41.11-.55l.13-.67c.07-.21.16-.36.27-.43.04-.14.11-.38.21-.73l.11-.48.27-.38c.14-.14.23-.34.25-.58.03-.24.12-.5.28-.77s.24-.43.24-.48c0-.21-.11-.32-.32-.32-.07,0-.29.14-.67.43l-.48-.16s-.13.09-.29.27c0,.07-.08.13-.24.16-.16.04-.31.17-.46.4l-.22.05-.35-.16h-.11c-.18,0-.29.2-.32.59-.2.29-.46.47-.78.56l-.59.16c-.2.07-.34.23-.43.48-.09.25-.27.48-.54.69s-.45.31-.54.31c-.5,0-.75-.28-.75-.83l.21-1.26-.05-.16Zm11.6-13.43l-.16-1.05v-.16c0-.84.29-1.31.86-1.4.12-.02.5-.13,1.13-.35.32.07.66.35,1.01.85.35.49.52.93.52,1.3,0,.04-.03.12-.08.24-.05.13-.09.36-.11.71-.02.35-.19.65-.52.91-.33.26-.68.39-1.06.39-.25,0-.57-.17-.95-.52-.38-.35-.59-.66-.63-.93Z"/>
      <path class="cls-1" d="m138.19,22.18l.4-.11.16-.35c.88-.52,1.5-1.01,1.88-1.48.04-.07.12-.14.24-.21.12-.07.26-.2.4-.38.66-.66,1.45-.99,2.36-.99,1.07,0,1.65.65,1.72,1.96l.16.4c.14.25.34.76.6,1.53.26.77.39,1.24.39,1.42,0,.48-.15.97-.46,1.45-.25.13-.85.8-1.8,2.01l-.27.19c-.14.32-.33.64-.56.97-.36.12-.54.26-.54.4v.48s-.04.11-.12.21c-.08.11-.19.31-.34.62l-.21.32c-.07.07-.14.22-.21.44-.07.22-.17.42-.31.6-.13.18-.2.32-.2.43,0,.27.35.4,1.05.4.04,0,.17-.05.4-.16l.38.11s.12-.06.27-.17c.14-.12.36-.21.66-.28.3-.07.55-.18.78-.32.22-.14.49-.27.8-.38.31-.11.61-.28.9-.52.29-.24.57-.42.85-.52.28-.11.54-.27.78-.5.24-.22.51-.43.82-.63.3-.2.79-.63,1.45-1.29.43-.34.72-.53.89-.56.04,0,.19-.24.47-.71.28-.47.6-.71.95-.71.38,0,.56.18.56.54,0,.2-.09.39-.27.56v.16l.05.43c.04.05.05.13.05.24,0,.07-.07.18-.2.32-.13.14-.23.33-.28.55s-.22.37-.51.44c-.11.39-.25.62-.42.67-.17.05-.41.23-.71.54-.3.3-.73.66-1.29,1.07s-.94.73-1.14.95c-.21.22-.35.34-.42.34-.04,0-.11-.04-.21-.11s-.18-.11-.21-.11c-.11,0-.18.12-.21.38l-.11.27c-.23.14-.37.21-.4.21l-.16-.05h-.11c-.21,0-.32.08-.32.24l.16.27v.05c0,.25-.14.38-.43.38-.2,0-.77.33-1.72.99l-.78.16-.64.35c-.21-.12-.35-.19-.4-.19l-.43.13-.78.05s-.35-.18-.98-.54c-.64-.36-1.02-.72-1.14-1.07-.13-.36-.29-.72-.48-1.09-.2-.37-.3-.62-.3-.77,0-.86.07-1.47.21-1.84.14-.37.23-.64.27-.82.04-.18.14-.37.31-.58.17-.21.31-.54.42-1.01.52-1.04.88-1.67,1.07-1.91.2-.23.35-.52.46-.86l.35-.48s.09-.17.16-.42c.07-.24.16-.38.27-.42.14-.25.21-.41.21-.48,0-.52-.23-.78-.7-.78-.09,0-.19.09-.3.28-.11.19-.35.37-.74.55-.39.18-.62.31-.71.4-.09.09-.28.2-.58.34-.29.13-.55.35-.76.63l-.46.21c-.14.34-.27.53-.38.56-.11.04-.44.13-.99.27-.04.02-.12.13-.27.32-.14.2-.35.3-.62.3-.21.21-.43.47-.64.75-.07,0-.26.07-.56.21l-.54.13c-.14.11-.3.28-.47.51-.17.23-.49.35-.95.35-.27,0-.4-.21-.4-.64,0-.88.31-1.58.93-2.09.62-.52,1.07-.8,1.36-.83.29-.04.47-.14.54-.32.07-.18.25-.33.52-.44.28-.12.6-.38.97-.78.37-.4.76-.68,1.19-.82l.32-.38Z"/>
      <path class="cls-1" d="m158.51,22.4l.38-.67c.11-.16.25-.33.42-.5.17-.17.35-.61.55-1.32.2-.71.42-1.2.66-1.46.24-.27.6-.4,1.06-.4.27,0,.62.13,1.06.39.44.26.87,1.04,1.29,2.35.42,1.31.63,2.23.63,2.77,0,.21.06.49.19.82.12.33.21.59.24.77-.14.3-.21.47-.21.51l.05,1.1-.32.89v.64c-.21.36-.32.58-.32.67,0,.11.04.21.11.32.84-.36,1.35-.65,1.53-.87s.35-.36.52-.42c.17-.05.45-.29.84-.7l.51-.27c.18-.21.33-.41.46-.58.12-.17.27-.29.44-.36.17-.07.37-.2.6-.38.23-.18.57-.38,1.02-.62l.27-.32c.27-.3.58-.55.95-.73.37-.18.57-.27.6-.27.12,0,.25.17.39.5.13.33.2.66.2.98,0,.3-.17.6-.52.9-.35.29-.59.51-.71.66-.12.14-.41.27-.86.38-.04.02-.33.39-.88,1.1l-.54.32-.27.35c-.04.07-.28.14-.72.21-.02,0-.06.09-.12.27-.06.18-.25.3-.58.38-.64.59-.97.92-.99.99l-.56.11c-.11.34-.2.55-.27.62-.43.11-.67.29-.72.54-.05.04-.14.07-.27.11l-.11.08c-.41.32-.81.52-1.21.59l-.62.16-.21.32c0,.09-.22.21-.66.35-.44.14-.76.32-.98.54l-.46.35c-.55.21-.9.41-1.05.59h-.38c-.25,0-.64.18-1.18.55-.54.37-.97.55-1.29.55-1.04,0-1.75-.13-2.13-.39-.38-.26-.7-.58-.95-.97-.25-.38-.48-.69-.68-.93-.21-.23-.31-.42-.31-.56,0-.13.08-.25.25-.38.17-.12.35-.38.55-.76s.7-.63,1.5-.74c.04,0,.17-.05.39-.16.22-.11.41-.16.55-.16.18,0,.4.16.67.48,0,.04.04.05.11.05l.43-.05c.2.14.33.21.4.21.43,0,.89-.21,1.37-.64l.11-.05h.21c.05,0,.14-.15.27-.46l.46-.94.94-1.21v-.27c0-.05.05-.21.16-.48v-.4c0-.16.11-.26.32-.31.21-.04.32-.16.32-.34l-.05-.21c-.14-.2-.21-.35-.21-.46l.27-.54-.05-.56.11-.21c-.07-.25-.11-.39-.11-.43l.11-.67s-.05-.19-.15-.51-.17-.48-.23-.48c-.11,0-.45.28-1.02.83-.57.56-.91.95-1.02,1.18-.11.23-.34.44-.69.63-.35.19-.59.4-.71.63-.13.23-.28.37-.46.4l-1.8,1.45-1.96,1.45c-.14.16-.23.24-.27.24-.66,0-1-.37-1-1.1,0-.23.13-.65.4-1.26.12-.07.22-.12.28-.16.06-.04.09-.06.09-.08s-.02-.03-.05-.03l.16.11h.05c.66-.45,1.09-.71,1.29-.78.2-.07.38-.27.54-.59l1.13-.81c.29-.21.73-.61,1.32-1.18.59-.57.97-.99,1.13-1.26Z"/>
      <path class="cls-1" d="m178.15,10.96l.38-.11.27-.27h.05l.24.11h.05c.43,0,.81-.08,1.14-.26.33-.17.61-.29.84-.36.23-.07.37-.12.42-.16.05-.04.1-.05.14-.05l.43.05c.14,0,.33-.25.58-.77.24-.51.51-.88.82-1.11.3-.23.61-.67.91-1.32.07-.09.15-.23.24-.42.09-.19.16-.28.21-.28.27,0,.48-.17.64-.51.54-.63.97-.94,1.31-.94.45,0,.76.43.94,1.29l.27,1.02s-.04.15-.13.39c-.09.24-.13.48-.12.73,0,.24,0,.4-.03.48-.03.08-.04.17-.04.28,0,.14.15.21.46.21.11,0,.3-.07.59-.21l.16-.05c.18.11.33.16.46.16.04,0,.29-.09.77-.27.47-.18.77-.28.9-.3.12-.02.34-.09.64-.21h.32l.21.08c.07,0,.22-.08.44-.23.22-.15.65-.25,1.28-.28l.38-.16h.11c.59,0,.89.26.89.78,0,.11-.08.3-.25.56-.17.27-.31.57-.42.91l-1.24,1.56c-.41.54-.82.81-1.24.81-.07,0-.29-.24-.67-.73,0-.04-.04-.05-.11-.05-.18,0-.37.04-.56.11-.2.07-.36.11-.48.11-.05,0-.53.13-1.42.4l-.64.11c-.07,0-.24.04-.51.11l-1.37.27c-.47.23-.83.67-1.1,1.32,0,.04-.09.12-.27.24l-1.21,2.2c-.39.11-.65.34-.78.7l-.11.16c-.2.04-.38.15-.54.34-.16.19-.31.34-.46.44l-.48.73c-.2.25-.39.52-.59.82-.2.29-.34.61-.43.94-.09.33-.16.52-.22.58s-.08.15-.08.3l-.08.21c-.21.21-.32.46-.32.73l.11.43c-.25.86-.38,1.32-.38,1.37,0,.04.02.13.05.3v.16c0,.39-.14.89-.43,1.48l.05.43-.16,1.21c0,.16.05.46.16.89-.07.07-.11.12-.11.16,0,.5.26,1.05.79,1.65.53.6.79,1.54.79,2.81,0,.11-.03.26-.08.47-.05.21-.09.43-.11.67-.02.24-.16.48-.42.71-.26.23-.48.35-.66.35-.95,0-1.66-.69-2.13-2.07-.47-1.38-.7-2.26-.7-2.66l.05-1.05-.16-.54.16-2.36-.11-.56.62-2.31v-.83s.12-.18.38-.43c0-.04-.04-.05-.11-.05-.11,0-.25.11-.43.32-.18.21-.4.42-.67.62l-.22.38s-.11-.07-.21-.11c-.09.04-.39.46-.89,1.26-.38.05-.67.27-.89.64-.21.38-.51.56-.89.56l-.11.05c-.07.52-.32.78-.75.78l-.11.05c-.27.61-.55.9-.83.89-.18.54-.62.9-1.32,1.1-.11.21-.26.38-.47.48-.21.11-.35.21-.44.3s-.17.13-.24.13c-.23,0-.35-.25-.35-.75,0-.14.06-.3.17-.47.12-.17.17-.29.17-.36,0-.04-.09-.14-.27-.32,0-.55.14-.9.43-1.05.29-.14.5-.35.65-.62.09-.21.27-.37.54-.46.27-.09.4-.21.4-.35,0-.12.23-.38.7-.75s.81-.7,1.02-.98c.21-.28.39-.42.54-.42l.11-.11c.04-.45.21-.67.51-.67l.27-.16.05-.21.16-.11h.21l.13-.11c.04-.45.25-.8.63-1.05.38-.25,1.09-.95,2.11-2.11,1.02-1.15,1.6-1.89,1.72-2.22.13-.32.35-.76.69-1.3.33-.55.52-1.06.55-1.54-.04-.07-.09-.14-.16-.21l-1.16.56c0-.05-.18-.13-.54-.24-.27.16-.47.32-.59.48s-.22.24-.29.24l-.38-.05-1.18.13c-1.06.09-1.85.3-2.39.64l-1.1.32h-.24c-.14,0-.36.09-.64.27l-.62-.05c-.57.3-.99.46-1.26.46-.04,0-.14-.02-.32-.05l-2.74.75c-.21.07-.7.44-1.45,1.1l-.21.05c-.18,0-.39-.2-.63-.6-.24-.4-.36-.77-.36-1.09,0-1.77,1.52-2.8,4.57-3.09l1.1-.43h.05l.3.11h.11c.11,0,.28-.07.51-.2.23-.13.75-.3,1.56-.5l1.1-.3.35.05c.18,0,.38-.07.6-.21.22-.14.56-.25,1.02-.31.46-.06.77-.13.95-.2l.43-.11c.07,0,.22-.06.44-.19.22-.12.51-.19.87-.19.05,0,.19.04.4.11Z"/>
    </g>
  </g>
</svg>